<?xml version="1.0" standalone="no"?>
<!DOCTYPE svg PUBLIC "-//W3C//DTD SVG 20010904//EN"
 "http://www.w3.org/TR/2001/REC-SVG-20010904/DTD/svg10.dtd">
<svg version="1.0" xmlns="http://www.w3.org/2000/svg"
 width="1000.000000pt" height="1000.000000pt" viewBox="0 0 1000.000000 1000.000000"
 preserveAspectRatio="xMidYMid meet">
<metadata>
Created by potrace 1.14, written by Peter Selinger 2001-2017
</metadata>
<g transform="translate(0.000000,1000.000000) scale(0.100000,-0.100000)"
fill="#000000" stroke="none">
<path d="M2585 9988 c-3 -7 -585 -2180 -1295 -4828 l-1290 -4815 0 -172 0
-173 174 0 c130 0 175 3 178 13 2 6 506 1884 1119 4173 l1114 4160 3 -4173 2
-4173 175 0 c96 0 175 1 175 3 0 4 2589 9657 2634 9819 25 92 46 169 46 173 0
3 -100 4 -222 3 l-222 -3 -1116 -4163 -1115 -4162 -3 4165 -2 4165 -175 0
c-131 0 -177 -3 -180 -12z"/>
<path d="M7060 9998 c0 -5 -2588 -9653 -2634 -9820 -25 -92 -46 -169 -46 -173
0 -3 100 -4 222 -3 l222 3 1206 4498 c788 2943 1207 4492 1212 4480 6 -12
2249 -8381 2399 -8945 l10 -38 174 0 175 0 -1 178 0 177 -1292 4820 -1293
4820 -177 3 c-97 1 -177 1 -177 0z"/>
</g>
</svg>
